<mxfile host="app.diagrams.net" modified="2023-07-20T20:24:20.584Z" agent="5.0 (Windows)" etag="pR2wPWd0Ig5n3cMxHHh7" version="21.0.6" type="github">
  <diagram id="C5RBs43oDa-KdzZeNtuy" name="Page-1">
    <mxGraphModel dx="2261" dy="754" grid="1" gridSize="10" guides="1" tooltips="1" connect="1" arrows="1" fold="1" page="1" pageScale="1" pageWidth="827" pageHeight="1169" math="0" shadow="0">
      <root>
        <mxCell id="WIyWlLk6GJQsqaUBKTNV-0" />
        <mxCell id="WIyWlLk6GJQsqaUBKTNV-1" parent="WIyWlLk6GJQsqaUBKTNV-0" />
        <mxCell id="jjuvTD5TwQWrYJXCy2-c-2" value="GRAVA EM" style="edgeStyle=orthogonalEdgeStyle;rounded=0;orthogonalLoop=1;jettySize=auto;html=1;entryX=0.5;entryY=0;entryDx=0;entryDy=0;" edge="1" parent="WIyWlLk6GJQsqaUBKTNV-1" source="jjuvTD5TwQWrYJXCy2-c-1" target="jjuvTD5TwQWrYJXCy2-c-3">
          <mxGeometry relative="1" as="geometry">
            <mxPoint x="170" y="210" as="targetPoint" />
          </mxGeometry>
        </mxCell>
        <mxCell id="jjuvTD5TwQWrYJXCy2-c-1" value="&lt;div&gt;MentorWeb&lt;/div&gt;" style="rounded=0;whiteSpace=wrap;html=1;" vertex="1" parent="WIyWlLk6GJQsqaUBKTNV-1">
          <mxGeometry x="110" y="100" width="120" height="60" as="geometry" />
        </mxCell>
        <mxCell id="jjuvTD5TwQWrYJXCy2-c-3" value="&lt;div&gt;TB_MENSAGENS_ENVIADAS&lt;/div&gt;&lt;div&gt;TB_MENSAGENS_ENVIADAS_DEST&lt;/div&gt;" style="rounded=0;whiteSpace=wrap;html=1;" vertex="1" parent="WIyWlLk6GJQsqaUBKTNV-1">
          <mxGeometry x="65" y="230" width="210" height="60" as="geometry" />
        </mxCell>
        <mxCell id="jjuvTD5TwQWrYJXCy2-c-10" style="edgeStyle=orthogonalEdgeStyle;rounded=0;orthogonalLoop=1;jettySize=auto;html=1;entryX=0.5;entryY=0;entryDx=0;entryDy=0;" edge="1" parent="WIyWlLk6GJQsqaUBKTNV-1" source="jjuvTD5TwQWrYJXCy2-c-9" target="jjuvTD5TwQWrYJXCy2-c-11">
          <mxGeometry relative="1" as="geometry">
            <mxPoint x="460" y="210" as="targetPoint" />
          </mxGeometry>
        </mxCell>
        <mxCell id="jjuvTD5TwQWrYJXCy2-c-9" value="Mensageria" style="rounded=0;whiteSpace=wrap;html=1;" vertex="1" parent="WIyWlLk6GJQsqaUBKTNV-1">
          <mxGeometry x="400" y="110" width="120" height="60" as="geometry" />
        </mxCell>
        <mxCell id="jjuvTD5TwQWrYJXCy2-c-15" style="edgeStyle=orthogonalEdgeStyle;rounded=0;orthogonalLoop=1;jettySize=auto;html=1;entryX=0.5;entryY=0;entryDx=0;entryDy=0;" edge="1" parent="WIyWlLk6GJQsqaUBKTNV-1" source="jjuvTD5TwQWrYJXCy2-c-11" target="jjuvTD5TwQWrYJXCy2-c-14">
          <mxGeometry relative="1" as="geometry" />
        </mxCell>
        <mxCell id="jjuvTD5TwQWrYJXCy2-c-11" value="Recupera mensagens" style="rounded=0;whiteSpace=wrap;html=1;" vertex="1" parent="WIyWlLk6GJQsqaUBKTNV-1">
          <mxGeometry x="375" y="230" width="170" height="60" as="geometry" />
        </mxCell>
        <mxCell id="jjuvTD5TwQWrYJXCy2-c-17" value="&lt;b&gt;SIM&lt;/b&gt;" style="edgeStyle=orthogonalEdgeStyle;rounded=0;orthogonalLoop=1;jettySize=auto;html=1;" edge="1" parent="WIyWlLk6GJQsqaUBKTNV-1" source="jjuvTD5TwQWrYJXCy2-c-14" target="jjuvTD5TwQWrYJXCy2-c-16">
          <mxGeometry relative="1" as="geometry" />
        </mxCell>
        <mxCell id="jjuvTD5TwQWrYJXCy2-c-19" value="&lt;b&gt;NÃO&lt;/b&gt;" style="edgeStyle=orthogonalEdgeStyle;rounded=0;orthogonalLoop=1;jettySize=auto;html=1;entryX=0.5;entryY=0;entryDx=0;entryDy=0;" edge="1" parent="WIyWlLk6GJQsqaUBKTNV-1" source="jjuvTD5TwQWrYJXCy2-c-14" target="jjuvTD5TwQWrYJXCy2-c-20">
          <mxGeometry relative="1" as="geometry">
            <mxPoint x="315" y="470" as="targetPoint" />
          </mxGeometry>
        </mxCell>
        <mxCell id="jjuvTD5TwQWrYJXCy2-c-49" style="edgeStyle=orthogonalEdgeStyle;rounded=0;orthogonalLoop=1;jettySize=auto;html=1;entryX=0;entryY=0.5;entryDx=0;entryDy=0;exitX=1;exitY=0;exitDx=0;exitDy=0;" edge="1" parent="WIyWlLk6GJQsqaUBKTNV-1" source="jjuvTD5TwQWrYJXCy2-c-14" target="jjuvTD5TwQWrYJXCy2-c-48">
          <mxGeometry relative="1" as="geometry" />
        </mxCell>
        <mxCell id="jjuvTD5TwQWrYJXCy2-c-14" value="Pessoa Permite enviar" style="rhombus;whiteSpace=wrap;html=1;" vertex="1" parent="WIyWlLk6GJQsqaUBKTNV-1">
          <mxGeometry x="400" y="350" width="120" height="80" as="geometry" />
        </mxCell>
        <mxCell id="jjuvTD5TwQWrYJXCy2-c-16" value="Envia mensagem para o whatsapp" style="rounded=0;whiteSpace=wrap;html=1;" vertex="1" parent="WIyWlLk6GJQsqaUBKTNV-1">
          <mxGeometry x="550" y="470" width="120" height="60" as="geometry" />
        </mxCell>
        <mxCell id="jjuvTD5TwQWrYJXCy2-c-27" value="&lt;b&gt;NÃO&lt;/b&gt;" style="edgeStyle=orthogonalEdgeStyle;rounded=0;orthogonalLoop=1;jettySize=auto;html=1;" edge="1" parent="WIyWlLk6GJQsqaUBKTNV-1" source="jjuvTD5TwQWrYJXCy2-c-20" target="jjuvTD5TwQWrYJXCy2-c-26">
          <mxGeometry relative="1" as="geometry" />
        </mxCell>
        <mxCell id="jjuvTD5TwQWrYJXCy2-c-30" value="&lt;b&gt;SIM&lt;/b&gt;" style="edgeStyle=orthogonalEdgeStyle;rounded=0;orthogonalLoop=1;jettySize=auto;html=1;entryX=0.5;entryY=0;entryDx=0;entryDy=0;" edge="1" parent="WIyWlLk6GJQsqaUBKTNV-1" source="jjuvTD5TwQWrYJXCy2-c-20" target="jjuvTD5TwQWrYJXCy2-c-29">
          <mxGeometry relative="1" as="geometry" />
        </mxCell>
        <mxCell id="jjuvTD5TwQWrYJXCy2-c-20" value="Mensagem pedindo permissão já enviada" style="rhombus;whiteSpace=wrap;html=1;" vertex="1" parent="WIyWlLk6GJQsqaUBKTNV-1">
          <mxGeometry x="205" y="450" width="170" height="100" as="geometry" />
        </mxCell>
        <mxCell id="jjuvTD5TwQWrYJXCy2-c-28" style="edgeStyle=orthogonalEdgeStyle;rounded=0;orthogonalLoop=1;jettySize=auto;html=1;entryX=0.5;entryY=1;entryDx=0;entryDy=0;" edge="1" parent="WIyWlLk6GJQsqaUBKTNV-1" source="jjuvTD5TwQWrYJXCy2-c-26" target="jjuvTD5TwQWrYJXCy2-c-16">
          <mxGeometry relative="1" as="geometry" />
        </mxCell>
        <mxCell id="jjuvTD5TwQWrYJXCy2-c-26" value="Cria mensagem pedindo permissão" style="whiteSpace=wrap;html=1;" vertex="1" parent="WIyWlLk6GJQsqaUBKTNV-1">
          <mxGeometry x="380" y="585" width="120" height="60" as="geometry" />
        </mxCell>
        <mxCell id="jjuvTD5TwQWrYJXCy2-c-32" value="&lt;b&gt;NÃO&lt;/b&gt;" style="edgeStyle=orthogonalEdgeStyle;rounded=0;orthogonalLoop=1;jettySize=auto;html=1;" edge="1" parent="WIyWlLk6GJQsqaUBKTNV-1" source="jjuvTD5TwQWrYJXCy2-c-29" target="jjuvTD5TwQWrYJXCy2-c-31">
          <mxGeometry relative="1" as="geometry" />
        </mxCell>
        <mxCell id="jjuvTD5TwQWrYJXCy2-c-35" value="&lt;b&gt;SIM&lt;/b&gt;" style="edgeStyle=orthogonalEdgeStyle;rounded=0;orthogonalLoop=1;jettySize=auto;html=1;entryX=1;entryY=0.5;entryDx=0;entryDy=0;" edge="1" parent="WIyWlLk6GJQsqaUBKTNV-1" source="jjuvTD5TwQWrYJXCy2-c-29" target="jjuvTD5TwQWrYJXCy2-c-36">
          <mxGeometry relative="1" as="geometry">
            <mxPoint x="-35" y="585" as="targetPoint" />
          </mxGeometry>
        </mxCell>
        <mxCell id="jjuvTD5TwQWrYJXCy2-c-29" value="Mensagem Respondida" style="rhombus;whiteSpace=wrap;html=1;" vertex="1" parent="WIyWlLk6GJQsqaUBKTNV-1">
          <mxGeometry x="60" y="545" width="110" height="80" as="geometry" />
        </mxCell>
        <mxCell id="jjuvTD5TwQWrYJXCy2-c-31" value="Não faz nada" style="whiteSpace=wrap;html=1;" vertex="1" parent="WIyWlLk6GJQsqaUBKTNV-1">
          <mxGeometry x="55" y="700" width="120" height="60" as="geometry" />
        </mxCell>
        <mxCell id="jjuvTD5TwQWrYJXCy2-c-39" value="&lt;b&gt;SIM&lt;/b&gt;" style="edgeStyle=orthogonalEdgeStyle;rounded=0;orthogonalLoop=1;jettySize=auto;html=1;entryX=0.5;entryY=0;entryDx=0;entryDy=0;" edge="1" parent="WIyWlLk6GJQsqaUBKTNV-1" source="jjuvTD5TwQWrYJXCy2-c-36" target="jjuvTD5TwQWrYJXCy2-c-38">
          <mxGeometry relative="1" as="geometry" />
        </mxCell>
        <mxCell id="jjuvTD5TwQWrYJXCy2-c-40" value="&lt;b&gt;NÃO&lt;/b&gt;" style="edgeStyle=orthogonalEdgeStyle;rounded=0;orthogonalLoop=1;jettySize=auto;html=1;entryX=1;entryY=0.5;entryDx=0;entryDy=0;" edge="1" parent="WIyWlLk6GJQsqaUBKTNV-1" source="jjuvTD5TwQWrYJXCy2-c-36" target="jjuvTD5TwQWrYJXCy2-c-41">
          <mxGeometry relative="1" as="geometry">
            <mxPoint x="-230" y="585" as="targetPoint" />
          </mxGeometry>
        </mxCell>
        <mxCell id="jjuvTD5TwQWrYJXCy2-c-36" value="Respondeu permitindo" style="rhombus;whiteSpace=wrap;html=1;" vertex="1" parent="WIyWlLk6GJQsqaUBKTNV-1">
          <mxGeometry x="-150" y="545" width="100" height="80" as="geometry" />
        </mxCell>
        <mxCell id="jjuvTD5TwQWrYJXCy2-c-38" value="Atualiza TB_PESSOA dizendo que permite enviar whatsapp" style="whiteSpace=wrap;html=1;" vertex="1" parent="WIyWlLk6GJQsqaUBKTNV-1">
          <mxGeometry x="-160" y="700" width="120" height="60" as="geometry" />
        </mxCell>
        <mxCell id="jjuvTD5TwQWrYJXCy2-c-45" style="edgeStyle=orthogonalEdgeStyle;rounded=0;orthogonalLoop=1;jettySize=auto;html=1;" edge="1" parent="WIyWlLk6GJQsqaUBKTNV-1" source="jjuvTD5TwQWrYJXCy2-c-41" target="jjuvTD5TwQWrYJXCy2-c-43">
          <mxGeometry relative="1" as="geometry" />
        </mxCell>
        <mxCell id="jjuvTD5TwQWrYJXCy2-c-41" value="Atualiza TB_PESSOA dizendo que &lt;b&gt;NÃO&lt;/b&gt; permite enviar whatsapp" style="whiteSpace=wrap;html=1;" vertex="1" parent="WIyWlLk6GJQsqaUBKTNV-1">
          <mxGeometry x="-350" y="555" width="120" height="60" as="geometry" />
        </mxCell>
        <mxCell id="jjuvTD5TwQWrYJXCy2-c-43" value="APAGA TODAS AS MENSAGENS DA TB_MENSAGENS_ENVIADAS_DEST" style="whiteSpace=wrap;html=1;" vertex="1" parent="WIyWlLk6GJQsqaUBKTNV-1">
          <mxGeometry x="-480" y="700" width="220" height="60" as="geometry" />
        </mxCell>
        <mxCell id="jjuvTD5TwQWrYJXCy2-c-48" value="&lt;div&gt;Não chega nessa parte caso a pessoa já tenha respondido que não permite enviar.&lt;/div&gt;&lt;div&gt;&lt;br&gt;&lt;/div&gt;&lt;div&gt;O caminho NÃO aqui se refere para a pessoa que ainda não respondeu se permite ou não&lt;br&gt;&lt;/div&gt;" style="text;html=1;strokeColor=none;fillColor=none;spacing=5;spacingTop=-20;whiteSpace=wrap;overflow=hidden;rounded=0;" vertex="1" parent="WIyWlLk6GJQsqaUBKTNV-1">
          <mxGeometry x="600" y="250" width="190" height="90" as="geometry" />
        </mxCell>
      </root>
    </mxGraphModel>
  </diagram>
</mxfile>
